<svg width="745.484" height="217.285" viewBox="0 0 745.484 217.285"  xmlns="http://www.w3.org/2000/svg"><g id="svgGroup" stroke-linecap="round" fill-rule="nonzero" font-size="9pt" stroke="#000" stroke-width="0.25mm" fill="#000" ><path d="M 169.678 110.474 A 11.565 11.565 0 0 1 172.335 110.759 Q 175.195 111.434 176.697 113.708 Q 178.421 116.32 178.754 122.152 A 52.321 52.321 0 0 1 178.833 125.122 Q 178.833 132.568 176.514 135.864 A 7.517 7.517 0 0 1 171.036 139.08 A 11.085 11.085 0 0 1 169.678 139.16 A 432.287 432.287 0 0 1 163.189 139.114 Q 156.206 139.009 151.376 138.663 A 96.213 96.213 0 0 1 148.621 138.428 Q 141.357 137.695 134.033 135.376 L 146.24 135.864 Q 141.609 137.187 133.641 138.262 A 199.13 199.13 0 0 1 131.897 138.489 A 343.828 343.828 0 0 1 122.269 139.557 A 436.544 436.544 0 0 1 111.816 140.442 A 670.339 670.339 0 0 1 90.576 141.663 A 602.86 602.86 0 0 1 83.223 141.923 Q 80.338 142.006 77.752 142.048 A 303.179 303.179 0 0 1 72.876 142.09 A 197.038 197.038 0 0 1 53.577 141.211 Q 30.842 138.966 17.944 130.981 A 35.948 35.948 0 0 1 1.932 108.781 Q 0 101.583 0 92.651 A 105.844 105.844 0 0 1 0.802 80.02 Q 1.656 72.931 3.418 65.063 L 19.531 66.895 A 114.885 114.885 0 0 0 18.544 75.748 A 90.962 90.962 0 0 0 18.311 82.153 A 52.152 52.152 0 0 0 18.779 89.397 Q 19.976 97.906 24.231 102.6 Q 30.151 109.131 42.603 111.023 Q 55.054 112.915 74.707 112.915 A 282.111 282.111 0 0 0 77.557 112.9 Q 81.931 112.855 87.689 112.683 A 770.015 770.015 0 0 0 88.074 112.671 A 847.78 847.78 0 0 0 100.41 112.202 A 946.96 946.96 0 0 0 104.675 112 A 730.721 730.721 0 0 0 112.976 111.542 A 582.377 582.377 0 0 0 120.667 111.023 A 308.09 308.09 0 0 0 124.157 110.744 Q 129.089 110.321 132.202 109.863 A 14.186 14.186 0 0 0 133.562 109.591 Q 134.9 109.248 135.638 108.7 A 2.472 2.472 0 0 0 136.23 108.093 Q 137.085 106.812 136.108 101.685 L 129.639 67.505 L 148.193 66.406 A 535.667 535.667 0 0 1 151.367 81.177 Q 152.832 88.501 153.931 95.093 A 148.094 148.094 0 0 1 154.961 101.721 A 122.053 122.053 0 0 1 155.396 105.469 A 104.415 104.415 0 0 1 155.762 110.138 A 77.672 77.672 0 0 1 155.884 114.38 A 61.579 61.579 0 0 1 155.836 116.883 Q 155.738 119.283 155.439 120.978 A 17.754 17.754 0 0 1 155.396 121.216 L 142.7 110.474 L 169.678 110.474 L 169.678 139.16 L 169.678 110.474 Z M 83.74 70.19 L 48.096 70.19 L 48.096 54.81 L 61.646 54.81 L 55.176 59.448 Q 55.054 55.176 54.321 48.218 A 914.267 914.267 0 0 0 53.12 37.437 A 1038.724 1038.724 0 0 0 52.673 33.691 A 2126.725 2126.725 0 0 0 51.788 26.474 A 1566.584 1566.584 0 0 0 50.964 19.958 Q 50.171 13.794 49.805 11.23 L 63.721 10.62 A 6920.35 6920.35 0 0 1 64.178 16.254 Q 64.619 21.707 64.93 25.683 A 1698.047 1698.047 0 0 1 65.186 28.992 Q 65.669 35.343 65.794 38.457 A 83.086 83.086 0 0 1 65.796 38.513 A 125.912 125.912 0 0 1 65.845 39.986 Q 65.89 41.606 65.872 42.769 A 32.828 32.828 0 0 1 65.857 43.396 Q 65.796 45.166 65.674 47.974 L 62.256 43.701 A 42.918 42.918 0 0 1 69.058 35.656 A 36.995 36.995 0 0 1 74.158 31.738 Q 81.055 27.344 88.867 27.344 A 16.285 16.285 0 0 1 100.517 32.185 A 22.325 22.325 0 0 1 101.563 33.264 Q 106.934 39.185 106.934 49.316 A 20.784 20.784 0 0 1 106.341 54.356 A 17.962 17.962 0 0 1 105.408 57.129 A 24.802 24.802 0 0 1 101.238 63.673 A 27.714 27.714 0 0 1 101.196 63.721 A 18.632 18.632 0 0 1 95.707 67.793 A 22.236 22.236 0 0 1 94.177 68.481 A 21.34 21.34 0 0 1 90.107 69.65 Q 88.137 70.021 85.867 70.138 A 41.634 41.634 0 0 1 83.74 70.19 Z M 66.04 53.589 L 66.406 54.321 A 1759.077 1759.077 0 0 1 70.297 54.443 A 1412.498 1412.498 0 0 1 73.914 54.565 A 208.834 208.834 0 0 0 77.255 54.657 A 161.288 161.288 0 0 0 80.322 54.688 Q 88.745 54.688 92.529 53.894 Q 95.552 53.26 96.16 52.276 A 0.971 0.971 0 0 0 96.313 51.758 A 13.357 13.357 0 0 0 96.029 48.9 Q 95.649 47.168 94.763 45.894 A 7.008 7.008 0 0 0 93.079 44.189 A 15.493 15.493 0 0 0 90.678 42.759 Q 89.198 42.06 87.758 41.841 A 8.753 8.753 0 0 0 86.792 41.748 A 21.788 21.788 0 0 0 85.986 41.733 A 18.886 18.886 0 0 0 74.89 45.227 A 41.893 41.893 0 0 0 68.683 50.508 A 35.974 35.974 0 0 0 66.04 53.589 Z" id="0" vector-effect="non-scaling-stroke"/><path d="M 272.827 110.474 L 272.827 139.16 L 272.827 110.474 L 267.944 110.474 Q 260.62 110.474 258.24 108.704 Q 256.52 107.424 254.767 104.456 A 36.261 36.261 0 0 1 253.418 101.929 Q 250.366 95.703 245.85 88.989 A 124.452 124.452 0 0 0 240.891 82.153 A 159.858 159.858 0 0 0 235.046 75.073 A 174.447 174.447 0 0 0 228.241 67.734 A 227.23 227.23 0 0 0 220.398 60.12 A 245.306 245.306 0 0 0 211.441 52.231 A 318.668 318.668 0 0 0 201.294 44.067 L 200.317 49.438 L 258.179 24.292 L 256.592 0 L 177.612 37.964 L 173.34 56.03 L 195.068 77.148 L 204.224 68.604 L 196.045 69.336 A 605.695 605.695 0 0 1 201.99 74.129 Q 206.749 78.018 210.855 81.553 A 306.157 306.157 0 0 1 218.14 88.013 A 268.292 268.292 0 0 1 220.947 90.625 Q 225.322 94.758 228.317 98.005 A 68.771 68.771 0 0 1 231.201 101.318 Q 233.395 103.951 234.012 105.763 A 4.047 4.047 0 0 1 234.253 107.056 A 2.47 2.47 0 0 1 233.334 108.994 A 4.349 4.349 0 0 1 232.483 109.558 Q 231.155 110.245 228.283 110.416 A 35.143 35.143 0 0 1 226.196 110.474 L 169.678 110.474 L 169.678 139.16 L 215.088 139.16 A 216.808 216.808 0 0 0 216.291 139.157 Q 228.747 139.088 236.145 137.573 Q 241.474 136.482 244.928 135.045 A 19.935 19.935 0 0 0 247.681 133.667 A 37.093 37.093 0 0 0 248.588 133.093 Q 251.633 131.104 252.808 129.395 L 236.694 131.47 A 148.216 148.216 0 0 0 241.023 133.423 Q 246.342 135.716 250.427 136.902 Q 256.104 138.55 261.23 138.855 Q 266.357 139.16 272.827 139.16 M 272.827 110.474 A 11.565 11.565 0 0 1 275.484 110.759 Q 278.344 111.434 279.846 113.708 Q 281.571 116.32 281.903 122.152 A 52.321 52.321 0 0 1 281.982 125.122 Q 281.982 132.568 279.663 135.864 A 7.517 7.517 0 0 1 274.185 139.08 A 11.085 11.085 0 0 1 272.827 139.16 M 169.678 139.16 A 9.835 9.835 0 0 1 166.832 138.771 A 7.362 7.362 0 0 1 162.842 135.864 A 10.056 10.056 0 0 1 161.569 133.254 Q 160.709 130.683 160.556 126.846 A 43.2 43.2 0 0 1 160.522 125.122 Q 160.522 118.736 161.825 115.364 A 8.663 8.663 0 0 1 162.659 113.708 A 6.891 6.891 0 0 1 166.957 110.774 Q 168.171 110.478 169.631 110.474 A 14.705 14.705 0 0 1 169.678 110.474 M 169.678 110.474 169.678 139.16" id="1" vector-effect="non-scaling-stroke"/><path d="M 285.156 139.16 L 272.827 139.16 L 272.827 110.474 L 306.519 110.474 A 16.322 16.322 0 0 0 308.089 110.404 Q 310.772 110.144 311.347 108.899 A 1.622 1.622 0 0 0 311.401 108.765 Q 312.012 107.056 310.791 100.83 L 304.321 67.627 L 322.754 66.528 A 415.042 415.042 0 0 1 326.126 78.964 A 534.171 534.171 0 0 1 329.407 92.59 A 132.411 132.411 0 0 1 332.108 108.94 A 107.581 107.581 0 0 1 332.642 119.507 L 325.806 110.474 L 343.14 110.474 L 343.14 139.16 L 340.332 139.16 A 56.481 56.481 0 0 1 329.319 138.114 A 50.906 50.906 0 0 1 326.66 137.512 Q 320.662 135.984 317.392 134.089 A 15.832 15.832 0 0 1 316.895 133.789 L 330.811 133.789 Q 324.463 137.085 313.66 138.123 Q 303.096 139.137 285.937 139.16 A 596.256 596.256 0 0 1 285.156 139.16 Z M 339.722 174.683 L 326.904 191.284 L 305.786 175.659 L 318.848 159.058 L 339.722 174.683 Z M 305.42 174.683 L 292.603 191.284 L 271.484 175.659 L 284.546 159.058 L 305.42 174.683 Z M 343.14 110.474 A 11.565 11.565 0 0 1 345.797 110.759 Q 348.657 111.434 350.159 113.708 Q 351.883 116.32 352.216 122.152 A 52.321 52.321 0 0 1 352.295 125.122 Q 352.295 132.568 349.976 135.864 A 7.517 7.517 0 0 1 344.497 139.08 A 11.085 11.085 0 0 1 343.14 139.16 M 272.827 139.16 A 9.835 9.835 0 0 1 269.982 138.771 A 7.362 7.362 0 0 1 265.991 135.864 A 10.056 10.056 0 0 1 264.719 133.254 Q 263.858 130.683 263.705 126.846 A 43.2 43.2 0 0 1 263.672 125.122 Q 263.672 118.736 264.974 115.364 A 8.663 8.663 0 0 1 265.808 113.708 A 6.891 6.891 0 0 1 270.107 110.774 Q 271.32 110.478 272.781 110.474 A 14.705 14.705 0 0 1 272.827 110.474 M 272.827 110.474 272.827 139.16 M 343.14 139.16 343.14 110.474" id="2" vector-effect="non-scaling-stroke"/><path d="M 345.947 139.16 L 343.14 139.16 L 343.14 110.474 L 349.609 110.474 A 194.309 194.309 0 0 0 374.935 108.757 A 225.487 225.487 0 0 0 383.728 107.422 Q 401.489 104.37 418.701 98.938 A 239.579 239.579 0 0 0 440.083 91.099 A 200.994 200.994 0 0 0 450.317 86.426 L 454.224 92.651 A 182.191 182.191 0 0 0 452.641 92.178 Q 449.997 91.4 445.74 90.21 A 3357.696 3357.696 0 0 0 436.087 87.526 A 3031.732 3031.732 0 0 0 434.753 87.158 Q 430.173 85.895 428.181 85.448 A 25.62 25.62 0 0 0 427.612 85.327 A 242.967 242.967 0 0 0 417.954 83.145 A 192.313 192.313 0 0 0 410.95 81.848 A 97.613 97.613 0 0 0 402.068 80.778 A 79.204 79.204 0 0 0 396.362 80.566 A 54.449 54.449 0 0 0 390.005 80.911 Q 381.931 81.863 377.808 85.449 A 45.627 45.627 0 0 0 368.53 96.436 L 355.469 88.745 A 67.658 67.658 0 0 1 362.888 73.299 A 57.708 57.708 0 0 1 370.361 64.087 A 33.024 33.024 0 0 1 388.043 54.981 A 47.394 47.394 0 0 1 396.851 54.199 A 72.203 72.203 0 0 1 413.747 56.255 A 81.204 81.204 0 0 1 416.199 56.885 A 285.051 285.051 0 0 1 421.482 58.388 Q 428.77 60.532 438.517 63.741 A 925.301 925.301 0 0 1 441.772 64.819 A 257.478 257.478 0 0 0 452.144 67.995 A 215.578 215.578 0 0 0 458.069 69.58 A 132.463 132.463 0 0 0 473.093 72.479 A 122.495 122.495 0 0 0 473.328 72.51 A 117.696 117.696 0 0 0 488.525 73.486 L 484.863 99.487 A 64.026 64.026 0 0 0 460.754 104.126 Q 449.219 108.765 436.523 114.99 A 542.559 542.559 0 0 1 421.641 121.904 A 652.53 652.53 0 0 1 412.048 126.099 A 158.047 158.047 0 0 1 395.389 132.1 A 198.439 198.439 0 0 1 382.751 135.437 A 139.88 139.88 0 0 1 365.463 138.229 Q 356.837 139.102 347.232 139.157 A 226.308 226.308 0 0 1 345.947 139.16 Z M 428.711 167.114 L 415.039 184.692 L 392.7 168.091 L 406.494 150.513 L 428.711 167.114 Z M 343.14 139.16 A 9.835 9.835 0 0 1 340.294 138.771 A 7.362 7.362 0 0 1 336.304 135.864 A 10.056 10.056 0 0 1 335.031 133.254 Q 334.171 130.683 334.018 126.846 A 43.2 43.2 0 0 1 333.984 125.122 Q 333.984 118.736 335.287 115.364 A 8.663 8.663 0 0 1 336.121 113.708 A 6.891 6.891 0 0 1 340.419 110.774 Q 341.633 110.478 343.093 110.474 A 14.705 14.705 0 0 1 343.14 110.474 M 343.14 110.474 343.14 139.16" id="3" vector-effect="non-scaling-stroke"/><path d="M 520.752 199.829 L 511.719 173.34 A 315.971 315.971 0 0 0 524.513 169.518 Q 534.546 166.275 542.48 162.842 Q 552.076 158.69 558.883 154.468 A 72.668 72.668 0 0 0 562.988 151.733 Q 568.726 147.583 571.838 143.066 A 29.201 29.201 0 0 0 574.417 138.55 A 22.448 22.448 0 0 0 575.928 134.033 L 575.317 115.967 A 54.842 54.842 0 0 0 573.437 108.591 A 44.675 44.675 0 0 0 571.655 104.065 A 37.06 37.06 0 0 0 568.58 98.593 A 30.177 30.177 0 0 0 565.735 95.032 A 24.736 24.736 0 0 0 557.8 89.294 Q 553.345 87.28 548.218 87.28 A 22.556 22.556 0 0 0 543.404 87.763 Q 539.181 88.686 536.377 91.37 A 16.714 16.714 0 0 0 533.989 94.179 Q 532.104 97.017 532.104 100.098 A 10.653 10.653 0 0 0 532.745 103.909 Q 534.234 107.82 539.185 109.314 A 44.323 44.323 0 0 0 545.275 110.657 Q 550.461 111.45 557.007 111.45 A 173.063 173.063 0 0 0 561.493 111.389 A 227.797 227.797 0 0 0 566.406 111.206 A 293.382 293.382 0 0 0 571.747 110.901 A 370.821 370.821 0 0 0 577.515 110.474 L 582.764 134.644 Q 571.424 137.27 564.169 138.086 A 77.934 77.934 0 0 1 563.843 138.123 A 167.027 167.027 0 0 1 558.726 138.602 Q 556.313 138.789 554.222 138.864 A 75.017 75.017 0 0 1 551.514 138.916 A 59.348 59.348 0 0 1 543.301 138.386 Q 539.135 137.802 535.741 136.577 A 24.87 24.87 0 0 1 529.724 133.484 A 31.984 31.984 0 0 1 523.534 127.794 A 25.822 25.822 0 0 1 519.226 120.361 A 48.193 48.193 0 0 1 517.097 112.998 A 36.429 36.429 0 0 1 516.357 105.835 Q 516.357 94.116 521.24 84.229 A 44.336 44.336 0 0 1 529.067 72.962 A 40.065 40.065 0 0 1 534.363 68.359 A 29.996 29.996 0 0 1 552.368 62.378 A 33.239 33.239 0 0 1 562.042 63.736 A 27.996 27.996 0 0 1 570.313 67.81 A 41.586 41.586 0 0 1 580.878 78.974 A 49.903 49.903 0 0 1 582.825 82.214 A 73.348 73.348 0 0 1 589.841 100.486 A 82.046 82.046 0 0 1 590.149 101.807 A 95.892 95.892 0 0 1 592.515 121.076 A 88.726 88.726 0 0 1 592.529 122.681 A 79.897 79.897 0 0 1 590.009 142.942 A 73.761 73.761 0 0 1 588.989 146.484 A 60.743 60.743 0 0 1 577.515 167.236 A 72.306 72.306 0 0 1 566.304 178.215 A 97.553 97.553 0 0 1 555.115 185.852 A 115.864 115.864 0 0 1 541.658 192.583 Q 534.579 195.597 526.359 198.166 A 204.832 204.832 0 0 1 520.752 199.829 Z" id="4" vector-effect="non-scaling-stroke"/><path d="M 682.373 110.474 A 11.565 11.565 0 0 1 685.03 110.759 Q 687.89 111.434 689.392 113.708 Q 691.116 116.32 691.449 122.152 A 52.321 52.321 0 0 1 691.528 125.122 Q 691.528 132.568 689.209 135.864 A 7.517 7.517 0 0 1 683.731 139.08 A 11.085 11.085 0 0 1 682.373 139.16 A 67.736 67.736 0 0 1 677.719 139.008 A 50.462 50.462 0 0 1 673.523 138.55 A 38.678 38.678 0 0 1 669.421 137.7 A 30.132 30.132 0 0 1 666.382 136.719 L 669.312 133.423 A 88.699 88.699 0 0 1 669.333 135.379 Q 669.333 142.097 668.289 148.03 A 52.822 52.822 0 0 1 663.879 161.987 A 55.922 55.922 0 0 1 650.133 179.77 A 67.18 67.18 0 0 1 646.484 182.739 A 90.572 90.572 0 0 1 629.272 193.054 A 128.65 128.65 0 0 1 615.311 198.559 A 113.54 113.54 0 0 1 610.718 199.951 L 601.685 173.462 A 371.032 371.032 0 0 0 611.656 169.966 Q 621.169 166.467 627.689 163.345 A 105.208 105.208 0 0 0 628.601 162.903 Q 635.037 159.745 639.561 156.77 A 50.601 50.601 0 0 0 643.799 153.687 A 45.132 45.132 0 0 0 647.353 150.544 Q 650.169 147.757 651.733 145.02 Q 654.175 140.747 654.175 136.353 Q 654.175 134.112 653.583 131.139 A 50.771 50.771 0 0 0 652.893 128.174 A 116.314 116.314 0 0 0 651.795 124.292 Q 651.255 122.492 650.599 120.471 A 251.431 251.431 0 0 0 649.17 116.211 Q 647.581 111.631 644.991 104.476 A 2093.482 2093.482 0 0 0 643.311 99.854 Q 639.526 89.478 635.254 78.491 L 655.64 72.876 Q 656.732 75.715 658.263 80.264 A 381.036 381.036 0 0 1 658.63 81.36 A 347.952 347.952 0 0 1 660.074 85.784 Q 660.719 87.81 661.267 89.63 A 199.178 199.178 0 0 1 661.621 90.82 A 3577.317 3577.317 0 0 1 662.41 93.416 Q 663.383 96.622 663.889 98.315 A 347.448 347.448 0 0 1 664.001 98.694 A 29.382 29.382 0 0 0 664.87 101.179 A 38.885 38.885 0 0 0 665.894 103.516 A 14.334 14.334 0 0 0 666.878 105.341 Q 667.755 106.705 668.823 107.544 A 8.724 8.724 0 0 0 671.36 108.993 Q 675.17 110.474 682.373 110.474 Z M 682.373 110.474 L 682.373 139.16 L 682.373 110.474 Z" id="5" vector-effect="non-scaling-stroke"/><path d="M 728.394 139.16 L 682.373 139.16 L 682.373 110.474 L 719.482 110.474 Q 723.858 110.474 725.255 109.451 A 1.812 1.812 0 0 0 725.647 109.07 A 1.739 1.739 0 0 0 725.905 108.513 Q 726.433 106.67 725.129 101.204 A 67.791 67.791 0 0 0 725.098 101.074 A 97.983 97.983 0 0 0 724.369 98.106 Q 723.496 94.755 722.119 90.202 A 403.902 403.902 0 0 0 720.764 85.815 A 320.821 320.821 0 0 0 717.725 76.673 Q 716.108 72.029 714.197 66.928 A 543.264 543.264 0 0 0 712.891 63.477 L 733.643 62.134 A 233.64 233.64 0 0 1 738.505 75 Q 740.604 81.121 742.083 86.727 A 140.155 140.155 0 0 1 742.493 88.318 A 100.995 100.995 0 0 1 744.99 102.042 A 82.784 82.784 0 0 1 745.483 110.962 Q 745.483 116.333 744.324 121.338 A 50.757 50.757 0 0 1 742.902 126.346 A 39.014 39.014 0 0 1 741.333 130.249 A 34.156 34.156 0 0 1 739.963 132.9 Q 738.056 136.196 736.084 137.451 Q 733.398 139.16 728.394 139.16 Z M 710.449 173.828 L 698.12 189.575 L 678.101 174.683 L 690.43 158.936 L 710.449 173.828 Z M 743.042 173.828 L 730.835 189.575 L 710.815 174.683 L 723.145 158.936 L 743.042 173.828 Z M 731.934 201.538 L 719.727 217.285 L 699.707 202.393 L 712.036 186.646 L 731.934 201.538 Z M 682.373 139.16 A 9.835 9.835 0 0 1 679.528 138.771 A 7.362 7.362 0 0 1 675.537 135.864 A 10.056 10.056 0 0 1 674.265 133.254 Q 673.404 130.683 673.251 126.846 A 43.2 43.2 0 0 1 673.218 125.122 Q 673.218 118.736 674.52 115.364 A 8.663 8.663 0 0 1 675.354 113.708 A 6.891 6.891 0 0 1 679.653 110.774 Q 680.866 110.478 682.327 110.474 A 14.705 14.705 0 0 1 682.373 110.474 M 682.373 110.474 682.373 139.16" id="6" vector-effect="non-scaling-stroke"/></g></svg>